<svg id="_x33_0" enable-background="new 0 0 64 64" height="512" viewBox="0 0 64 64" width="512" xmlns="http://www.w3.org/2000/svg" xmlns:xlink="http://www.w3.org/1999/xlink"><linearGradient id="SVGID_1_" gradientUnits="userSpaceOnUse" x1="32" x2="32" y1="63" y2="1"><stop offset="0" stop-color="#9f2fff"/><stop offset="1" stop-color="#0bb1d3"/></linearGradient><path d="m19.949 22.316-1.897-.632c.725-2.176 2.457-3.908 4.633-4.633l.632 1.897c-1.583.528-2.841 1.786-3.368 3.368zm24.102 0 1.897-.632c-.725-2.176-2.457-3.908-4.633-4.633l-.632 1.897c1.583.528 2.841 1.786 3.368 3.368zm10.949 38.684h8v2h-62v-2h8v-27c-1.103 0-2-.897-2-2v-5c0-1.103.897-2 2-2v-.649l-2.247-2.809c-1.13-1.413-1.753-3.188-1.753-4.998v-7.544c0-2.206 1.794-4 4-4h2v-1c0-1.654 1.346-3 3-3 .771 0 1.468.301 2 .78.532-.479 1.229-.78 2-.78s1.468.301 2 .78c.532-.479 1.229-.78 2-.78 1.383 0 2.539.945 2.884 2.22.346-.139.721-.22 1.116-.22 1.654 0 3 1.346 3 3v11.395c0 2.454-.69 4.833-2 6.902v.703c1.103 0 2 .897 2 2v5c0 1.103-.897 2-2 2v14.253c.647.22 1.249.582 1.743 1.076l1.929 1.929c.226.226.417.477.589.743h1.478c.172-.265.364-.517.589-.743l1.929-1.929c.493-.493 1.096-.854 1.743-1.075v-14.254c-1.103 0-2-.897-2-2v-5c0-1.103.897-2 2-2v-.704c-1.31-2.068-2-4.448-2-6.902v-11.394c0-1.654 1.346-3 3-3 .395 0 .77.081 1.116.22.346-1.275 1.501-2.22 2.884-2.22.771 0 1.468.301 2 .78.532-.479 1.229-.78 2-.78s1.468.301 2 .78c.532-.479 1.229-.78 2-.78 1.654 0 3 1.346 3 3v1h2c2.206 0 4 1.794 4 4v7.544c0 1.81-.623 3.584-1.753 4.998l-2.247 2.809v.649c1.103 0 2 .897 2 2v5c0 1.103-.897 2-2 2zm-2-27h-4v3.005c1.245.937 2 2.418 2 3.995v2c0 2.453-1.779 4.489-4.113 4.91-.138.53-.403 1.02-.801 1.418l-3.094 3.094c.001.038.008.075.008.114 0 1.211-.472 2.351-1.329 3.207l-1.929 1.929c-.227.228-.478.424-.742.596v2.732h14zm-26 24.955v2.045h10v-2.045c-.155.015-.307.045-.464.045-1.07 0-2.085-.395-2.896-1.072-.207.045-.42.072-.64.072h-2c-.22 0-.433-.027-.64-.072-.811.677-1.826 1.072-2.896 1.072-.157 0-.309-.03-.464-.045zm6-4.955h-2c-.551 0-1 .449-1 1s.449 1 1 1h2c.551 0 1-.449 1-1s-.449-1-1-1zm6-3.121c0 .618.503 1.121 1.121 1.121.3 0 .581-.117.793-.328l3.758-3.758c.211-.212.328-.493.328-.793 0-.618-.503-1.121-1.121-1.121-.3 0-.581.117-.793.328l-3.758 3.758c-.211.212-.328.493-.328.793zm4.208-6.802c.218-.047.442-.077.671-.077 1.286 0 2.391.782 2.868 1.894 1.292-.334 2.253-1.499 2.253-2.894v-2c0-.343-.078-.67-.189-.985-.418 1.154-1.515 1.985-2.811 1.985s-2.393-.831-2.811-1.985c-.111.315-.189.642-.189.985v2c0 .374.076.736.208 1.077zm2.792-4.077c.551 0 1-.449 1-1v-6c0-.551-.449-1-1-1s-1 .449-1 1v6c0 .551.449 1 1 1zm3-36v1h2v-1c0-.551-.449-1-1-1s-1 .449-1 1zm2 7.62-.254-.051c-.647-.129-1.231-.403-1.746-.765v1.196c0 .551.449 1 1 1s1-.449 1-1zm-6-7.62v8c0 .551.449 1 1 1s1-.449 1-1v-8c0-.551-.449-1-1-1s-1 .449-1 1zm-4 8c0 .551.449 1 1 1s1-.449 1-1v-8c0-.551-.449-1-1-1s-1 .449-1 1zm-4 0c0 .551.449 1 1 1s1-.449 1-1v-6c0-.551-.449-1-1-1s-1 .449-1 1zm2 11.697v1.303h14v-1.351l2.686-3.356c.847-1.06 1.314-2.391 1.314-3.749v-7.544c0-1.103-.897-2-2-2h-6c0 1.263.899 2.36 2.138 2.608l3.522.704-.828 1.243c-1.254 1.882-2.115 3.96-2.559 6.177l-.293 1.464-1.961-.393.293-1.464c.16-.8.382-1.579.638-2.344-.75-.012-1.43-.306-1.95-.775-.532.48-1.229.78-2 .78s-1.468-.301-2-.78c-.532.48-1.229.78-2 .78s-1.468-.301-2-.78c-.532.48-1.229.78-2 .78-.352 0-.686-.072-1-.184v2.579c0 2.161.633 4.253 1.832 6.051zm-2 8.303h6.184c.414-1.161 1.514-2 2.816-2s2.402.839 2.816 2h6.184v-5h-18zm2 2v13.586l2.476-2.476c-.308-.656-.476-1.37-.476-2.11v-2c0-1.578.755-3.058 2-3.995v-3.005zm-4.201 18.615c.725.548 1.201 1.408 1.201 2.385 0 .646-.21 1.241-.558 1.731.941.427 2.136.277 2.887-.474l1.929-1.929c.115-.115.216-.24.306-.372-.147.022-.293.044-.443.044-1.721 0-3.121-1.4-3.121-3.121 0-.145.022-.285.042-.426-.13.087-.258.178-.37.29zm-7.47-1.872c-.112-.112-.241-.202-.37-.29.019.141.041.281.041.426 0 1.721-1.4 3.121-3.121 3.121-.15 0-.296-.022-.442-.043.09.132.19.257.306.372l1.929 1.929c.752.752 1.946.902 2.887.474-.349-.49-.559-1.086-.559-1.732 0-.977.476-1.837 1.201-2.385zm-7.208-6.743c.229 0 .453.03.671.077.132-.341.208-.703.208-1.077v-2c0-.343-.078-.67-.189-.985-.418 1.154-1.515 1.985-2.811 1.985s-2.393-.831-2.811-1.985c-.111.315-.189.642-.189.985v2c0 1.395.961 2.56 2.253 2.894.477-1.112 1.582-1.894 2.868-1.894zm-2.121-4c.551 0 1-.449 1-1v-6c0-.551-.449-1-1-1s-1 .449-1 1v6c0 .551.449 1 1 1zm1 7.121c0 .3.117.581.328.793l3.758 3.758c.212.211.493.328.793.328.618 0 1.121-.503 1.121-1.121 0-.3-.117-.581-.328-.793l-3.758-3.758c-.212-.211-.493-.328-.793-.328-.618 0-1.121.503-1.121 1.121zm6-13.121h-4v3.005c1.245.937 2 2.418 2 3.995v2c0 .74-.168 1.454-.476 2.11l2.476 2.476zm0-28v6c0 .551.449 1 1 1s1-.449 1-1v-6c0-.551-.449-1-1-1s-1 .449-1 1zm-4-2v8c0 .551.449 1 1 1s1-.449 1-1v-8c0-.551-.449-1-1-1s-1 .449-1 1zm-4 0v8c0 .551.449 1 1 1s1-.449 1-1v-8c0-.551-.449-1-1-1s-1 .449-1 1zm-3 9c.551 0 1-.449 1-1v-1.196c-.515.362-1.099.636-1.746.765l-.254.051v.38c0 .551.449 1 1 1zm-1-8h2v-1c0-.551-.449-1-1-1s-1 .449-1 1zm-2 18.649v1.351h14v-1.303l.168-.252c1.199-1.798 1.832-3.89 1.832-6.05v-2.579c-.314.112-.648.184-1 .184-.771 0-1.468-.301-2-.78-.532.48-1.229.78-2 .78s-1.468-.301-2-.78c-.532.48-1.229.78-2 .78s-1.468-.301-2-.78c-.52.469-1.2.763-1.951.775.257.766.478 1.544.638 2.344l.293 1.464-1.961.393-.293-1.464c-.443-2.217-1.304-4.295-2.559-6.177l-.827-1.243 3.522-.704c1.239-.248 2.138-1.345 2.138-2.608h-6c-1.103 0-2 .897-2 2v7.544c0 1.357.467 2.688 1.314 3.749zm-2 8.351h6.184c.414-1.161 1.514-2 2.816-2s2.402.839 2.816 2h6.184v-5h-18zm2 29h14v-2.732c-.264-.172-.515-.368-.743-.596l-1.929-1.929c-.856-.857-1.328-1.996-1.328-3.207 0-.039.007-.075.008-.114l-3.094-3.094c-.398-.398-.663-.888-.801-1.418-2.334-.421-4.113-2.457-4.113-4.91v-2c0-1.578.755-3.058 2-3.995v-3.005h-4z" fill="url(#SVGID_1_)"/></svg>