<svg id="icon" height="512" viewBox="0 0 128 128" width="512" xmlns="http://www.w3.org/2000/svg"><path d="m75.774 80.753v-17.659h-23.548v17.659l-4.566 1.563v9.578h34.812v-8.848z" fill="#f3cda7"/><path d="m82.472 92.894h-34.812a1 1 0 0 1 -1-1v-9.578a1 1 0 0 1 .676-.946l3.889-1.332v-16.944a1 1 0 0 1 1-1h23.549a1 1 0 0 1 1 1v16.944l6.026 2.062a1 1 0 0 1 .676.946v8.848a1 1 0 0 1 -1.004 1zm-33.812-2h32.812v-7.133l-6.021-2.061a1 1 0 0 1 -.676-.946v-16.66h-21.549v16.659a1 1 0 0 1 -.676.946l-3.89 1.332z" fill="#2f3a5a"/><path d="m110.03 99.944a12.815 12.815 0 0 0 -8.545-10.388l-25.71-8.8v-.36l-12.221 9.633-11.328-9.637v.36l-25.71 8.8a12.815 12.815 0 0 0 -8.546 10.392l-3.07 27.056h98.2z" fill="#9297ab"/><path d="m113.1 127h-8.34l-3.07-27.06a12.821 12.821 0 0 0 -8.55-10.38l-20.21-6.93 2.84-2.24v.36l25.71 8.81a12.8 12.8 0 0 1 8.55 10.38z" fill="#84879c"/><path d="m113.1 128h-98.2a1 1 0 0 1 -.994-1.113l3.074-27.056a13.753 13.753 0 0 1 9.211-11.221l25.109-8.6a1 1 0 0 1 1.573-.382l10.7 9.106 11.578-9.129a1 1 0 0 1 1.544.405l25.109 8.6a13.744 13.744 0 0 1 9.212 11.2v.022l3.074 27.056a1 1 0 0 1 -.99 1.112zm-97.088-2h95.968l-2.946-25.932a11.754 11.754 0 0 0 -7.877-9.566l-25.51-8.735-11.474 9.047a1 1 0 0 1 -1.267-.023l-10.593-9.011-25.474 8.72a11.754 11.754 0 0 0 -7.878 9.577z" fill="#2f3a5a"/><path d="m88.04 45.454c-1.7-.5-3.751 1.965-4.587 5.5s-.138 6.8 1.559 7.3 3.751-1.965 4.587-5.5.138-6.802-1.559-7.3z" fill="#f3cda7"/><path d="m85.458 59.317a2.577 2.577 0 0 1 -.728-.1c-2.271-.665-3.239-4.314-2.251-8.489.646-2.728 2.01-4.982 3.562-5.885a2.859 2.859 0 0 1 2.28-.344c2.271.665 3.239 4.314 2.251 8.489-.645 2.727-2.01 4.982-3.562 5.885a3.086 3.086 0 0 1 -1.552.444zm2.135-12.926a1.115 1.115 0 0 0 -.547.177c-.882.513-2.035 2.14-2.621 4.617-.791 3.342-.014 5.851.868 6.109a.929.929 0 0 0 .707-.154c.883-.513 2.036-2.14 2.621-4.616.791-3.343.014-5.852-.868-6.11a.591.591 0 0 0 -.16-.023z" fill="#2f3a5a"/><path d="m40.1 45.493c1.782-.52 3.9 1.925 4.731 5.461s.06 6.823-1.722 7.343-3.9-1.925-4.731-5.461-.056-6.823 1.722-7.343z" fill="#f3cda7"/><path d="m42.624 59.367a3.26 3.26 0 0 1 -1.646-.477c-1.573-.918-2.941-3.15-3.57-5.825-.981-4.176.057-7.844 2.416-8.532a3.039 3.039 0 0 1 2.415.366c1.574.917 2.942 3.15 3.571 5.826.981 4.176-.058 7.844-2.416 8.532a2.747 2.747 0 0 1 -.77.11zm-2.031-12.943a.738.738 0 0 0 -.209.029c-.967.282-1.827 2.76-1.029 6.154.5 2.127 1.533 3.915 2.631 4.556a1.092 1.092 0 0 0 .847.174c.967-.282 1.826-2.76 1.028-6.155-.5-2.126-1.533-3.915-2.631-4.556a1.29 1.29 0 0 0 -.637-.202z" fill="#2f3a5a"/><path d="m69.29 22.8h-10.39c-8.735 2.989-15.18 13.333-15.18 25.62a32.477 32.477 0 0 0 2.887 13.6c3.566 7.721 10.067 12.893 17.493 12.893 7.967 0 14.852-5.944 18.2-14.621a32.737 32.737 0 0 0 2.163-11.872c0-12.287-6.445-22.631-15.173-25.62z" fill="#f3cda7"/><path d="m64.1 75.913c-7.511 0-14.562-5.162-18.4-13.472a33.572 33.572 0 0 1 -2.98-14.022c0-12.447 6.521-23.371 15.858-26.566a1 1 0 0 1 .322-.053h10.39a1 1 0 0 1 .324.054c9.332 3.2 15.849 14.121 15.849 26.566a33.549 33.549 0 0 1 -2.23 12.236c-3.633 9.409-10.965 15.257-19.133 15.257zm-5.029-52.113c-8.458 2.991-14.351 13.084-14.351 24.619a31.563 31.563 0 0 0 2.795 13.181c3.562 7.709 9.761 12.312 16.585 12.312 7.322 0 13.939-5.357 17.269-13.981a31.557 31.557 0 0 0 2.095-11.512c0-11.534-5.889-21.627-14.342-24.62z" fill="#2f3a5a"/><path d="m85.063 25.334a13.828 13.828 0 0 0 -.635-2.534c-3.554-4.684-7.2-4.023-10.894 0-6.5-8.838-16.4-6.349-27.459 0a13.155 13.155 0 0 0 -1.9 1.993c-2.275 3-2.942 6.882-3.5 10.6a30.619 30.619 0 0 0 -.485 7.36c.222 2.374 3.266 8.067 3.636 8.822.6-2.8 1.533-5.906 3.158-11.041a12.251 12.251 0 0 1 7.2-4.747c3.082-.661 6.319-.095 9.415-.683 3.656-.694 7.818-3.926 9.662-7.147.544 1.408-.036 7.351 3.632 8.633 4.578 1.6 7.114 10.951 7.215 16.762.616-2.775 3.037-11.182 3.135-12.765a35.423 35.423 0 0 0 .022-6.4c-.571-3.397-1.628-5.453-2.202-8.853z" fill="#84879c"/><path d="m84.112 54.355c-.034 0-.067 0-.1 0a1 1 0 0 1 -.9-.978c-.1-5.692-2.636-14.47-6.545-15.835-3.03-1.059-3.659-4.512-3.937-6.968a16.811 16.811 0 0 1 -8.841 5.52 26.57 26.57 0 0 1 -4.745.33 23.109 23.109 0 0 0 -4.647.348 11.267 11.267 0 0 0 -6.512 4.228c-1.579 4.991-2.492 8.046-3.083 10.79a1 1 0 0 1 -1.876.229l-.226-.439c-1.416-2.766-3.319-6.68-3.511-8.731a31.908 31.908 0 0 1 .492-7.6c.609-4.068 1.35-7.974 3.691-11.061a14.108 14.108 0 0 1 2.045-2.145 1.021 1.021 0 0 1 .156-.11c8.36-4.8 20.233-9.98 28.039-.648 2.015-1.938 3.949-2.84 5.883-2.748 2.029.1 3.956 1.327 5.726 3.659a1 1 0 0 1 .14.253 15 15 0 0 1 .685 2.719 33.872 33.872 0 0 0 1.075 4.309 35.9 35.9 0 0 1 1.13 4.548 34.627 34.627 0 0 1 0 6.442l-.011.185a73.179 73.179 0 0 1 -1.918 8.079c-.519 1.961-1.01 3.814-1.238 4.842a1 1 0 0 1 -.972.782zm-37.455-30.736a12.021 12.021 0 0 0 -1.687 1.781c-2.059 2.714-2.716 6.2-3.308 10.147a29.41 29.41 0 0 0 -.478 7.12 22.955 22.955 0 0 0 2.316 6.021c.589-2.226 1.392-4.845 2.534-8.453a1.01 1.01 0 0 1 .147-.289 13.3 13.3 0 0 1 7.8-5.134 24.955 24.955 0 0 1 5.049-.393 24.692 24.692 0 0 0 4.39-.295 15 15 0 0 0 8.98-6.661.986.986 0 0 1 .943-.5 1 1 0 0 1 .857.636 8.769 8.769 0 0 1 .345 2.038c.214 2.1.539 5.263 2.684 6.013 3.8 1.329 6.2 6.929 7.26 12.213.784-2.963 1.709-6.481 1.761-7.333l.011-.186a33.631 33.631 0 0 0 .022-5.987 33.872 33.872 0 0 0 -1.075-4.309 35.9 35.9 0 0 1 -1.13-4.548 13.706 13.706 0 0 0 -.536-2.213c-1.366-1.762-2.757-2.687-4.137-2.752-1.531-.082-3.272.916-5.134 2.942a1 1 0 0 1 -1.542-.084c-5.259-7.153-13.302-7.084-26.072.226z" fill="#2f3a5a"/><path d="m75.774 74.913-9.001 12.572 7.658 10.747 5.203-16.158z" fill="#b0b3c1"/><path d="m74.431 99.232a1 1 0 0 1 -.814-.419l-7.659-10.748a1 1 0 0 1 0-1.163l9-12.572a.985.985 0 0 1 .876-.416 1 1 0 0 1 .817.524l3.863 7.162a1 1 0 0 1 .071.781l-5.2 16.158a1 1 0 0 1 -.8.682 1.018 1.018 0 0 1 -.154.011zm-6.431-11.746 6.09 8.544 4.461-13.856-2.9-5.375z" fill="#2f3a5a"/><path d="m52.226 74.769 8.295 12.716-7.658 10.747-5.203-16.158z" fill="#b0b3c1"/><path d="m52.863 99.232a1.018 1.018 0 0 1 -.153-.012 1 1 0 0 1 -.8-.682l-5.2-16.158a1 1 0 0 1 .1-.836l4.565-7.306a1 1 0 0 1 .838-.47.957.957 0 0 1 .847.454l8.3 12.716a1 1 0 0 1 -.023 1.126l-7.66 10.748a1 1 0 0 1 -.814.42zm-4.109-17.022 4.446 13.82 6.107-8.57-7.063-10.834z" fill="#2f3a5a"/><path d="m88.265 10.932-24.501-9.932-24.501 9.932-6.812 12.839 8.366 9.322h22.947 22.947l8.366-9.322z" fill="#707583"/><path d="m86.711 34.093h-45.894a1 1 0 0 1 -.744-.332l-8.366-9.322a1 1 0 0 1 -.139-1.137l6.812-12.839a1 1 0 0 1 .508-.458l24.501-9.932a1 1 0 0 1 .751 0l24.5 9.932a1 1 0 0 1 .508.458l6.812 12.837a1 1 0 0 1 -.139 1.137l-8.366 9.322a1 1 0 0 1 -.744.334zm-45.448-2h45l7.6-8.47-6.315-11.9-23.784-9.644-23.788 9.643-6.314 11.9z" fill="#2f3a5a"/><path d="m86.75 37.125c-.47 3.774-2.58 9.1-10.438 11.027a73.759 73.759 0 0 1 -12.549 1.068 73.759 73.759 0 0 1 -12.548-1.067c-7.858-1.927-9.968-7.253-10.438-11.027a14.348 14.348 0 0 1 .04-4.029h45.893a14.348 14.348 0 0 1 .04 4.028z" fill="#707583"/><path d="m86.75 37.13c-.47 3.77-2.58 9.1-10.44 11.02a73.413 73.413 0 0 1 -12.55 1.07 73.3 73.3 0 0 1 -12.54-1.07c-4.43-1.08-7.04-3.25-8.55-5.61a16.333 16.333 0 0 0 4.15 1.58 73.418 73.418 0 0 0 12.55 1.07 73.5 73.5 0 0 0 12.55-1.07c7.84-1.93 9.96-7.24 10.43-11.02h4.36a14.2 14.2 0 0 1 .04 4.03z" fill="#84879c"/><path d="m63.764 50.22a74.94 74.94 0 0 1 -12.718-1.082c-8.787-2.152-10.823-8.372-11.26-11.889a15.3 15.3 0 0 1 .049-4.339 1 1 0 0 1 .982-.813h45.893a1 1 0 0 1 .982.813 15.285 15.285 0 0 1 .05 4.338c-.438 3.518-2.475 9.737-11.192 11.875a74.887 74.887 0 0 1 -12.786 1.097zm-22.064-16.12a14.569 14.569 0 0 0 .07 2.9c.457 3.672 2.508 8.419 9.684 10.179a74.029 74.029 0 0 0 24.688-.014c7.106-1.743 9.158-6.49 9.616-10.165a14.525 14.525 0 0 0 .065-2.906z" fill="#2f3a5a"/><path d="m86.75 37.125h-45.973a14.348 14.348 0 0 1 .04-4.029h45.893a14.348 14.348 0 0 1 .04 4.029z" fill="#dbe2eb"/><path d="m86.75 38.125h-45.973a1 1 0 0 1 -.992-.877 15.3 15.3 0 0 1 .049-4.338 1 1 0 0 1 .982-.813h45.894a1 1 0 0 1 .982.813 15.285 15.285 0 0 1 .05 4.338 1 1 0 0 1 -.992.877zm-45.062-2h44.15a14.441 14.441 0 0 0 -.016-2.029h-44.122a14.452 14.452 0 0 0 -.012 2.029z" fill="#2f3a5a"/><path d="m63.764 13.668 5.102-3.735-.683 6.286 5.785 2.551-5.785 2.551.683 6.286-5.102-3.735-5.102 3.735.684-6.286-5.786-2.551 5.786-2.551-.684-6.286z" fill="#dbe2eb"/><path d="m68.866 28.607a1 1 0 0 1 -.591-.193l-4.511-3.3-4.511 3.3a1 1 0 0 1 -1.585-.915l.6-5.558-5.116-2.256a1 1 0 0 1 0-1.83l5.12-2.255-.6-5.558a1 1 0 0 1 1.585-.915l4.511 3.3 4.511-3.3a1 1 0 0 1 1.585.915l-.6 5.558 5.116 2.256a1 1 0 0 1 0 1.83l-5.116 2.256.6 5.558a1 1 0 0 1 -.994 1.108zm-5.1-5.735a1 1 0 0 1 .591.193l3.272 2.4-.438-4.031a1 1 0 0 1 .591-1.023l3.71-1.636-3.71-1.636a1 1 0 0 1 -.591-1.023l.438-4.031-3.272 2.4a1 1 0 0 1 -1.182 0l-3.275-2.405.438 4.031a1 1 0 0 1 -.591 1.023l-3.71 1.636 3.71 1.636a1 1 0 0 1 .591 1.023l-.438 4.031 3.272-2.4a1 1 0 0 1 .592-.188z" fill="#2f3a5a"/><path d="m63.554 128a1 1 0 0 1 -1-1v-36.971a1 1 0 0 1 2 0v36.971a1 1 0 0 1 -1 1z" fill="#2f3a5a"/><path d="m75.608 110.637h16.26v11.738h-16.26z" fill="#bac2d3"/><path d="m91.868 123.375h-16.26a1 1 0 0 1 -1-1v-11.738a1 1 0 0 1 1-1h16.26a1 1 0 0 1 1 1v11.738a1 1 0 0 1 -1 1zm-15.26-2h14.26v-9.738h-14.26z" fill="#2f3a5a"/><path d="m91.868 111.566-8.13 2.217-8.13-2.217v-5.009h16.26z" fill="#bac2d3"/><path d="m83.738 114.783a1 1 0 0 1 -.263-.035l-8.13-2.217a1 1 0 0 1 -.737-.965v-5.009a1 1 0 0 1 1-1h16.26a1 1 0 0 1 1 1v5.009a1 1 0 0 1 -.737.965l-8.131 2.217a1 1 0 0 1 -.262.035zm-7.13-3.981 7.13 1.944 7.13-1.944v-3.246h-14.26z" fill="#2f3a5a"/><path d="m35.68 110.637h16.26v11.738h-16.26z" fill="#bac2d3"/><path d="m51.94 123.375h-16.26a1 1 0 0 1 -1-1v-11.738a1 1 0 0 1 1-1h16.26a1 1 0 0 1 1 1v11.738a1 1 0 0 1 -1 1zm-15.26-2h14.26v-9.738h-14.26z" fill="#2f3a5a"/><path d="m51.94 111.566-8.13 2.217-8.13-2.217v-5.009h16.26z" fill="#bac2d3"/><path d="m43.81 114.783a1 1 0 0 1 -.263-.035l-8.13-2.217a1 1 0 0 1 -.737-.965v-5.009a1 1 0 0 1 1-1h16.26a1 1 0 0 1 1 1v5.009a1 1 0 0 1 -.737.965l-8.13 2.217a1 1 0 0 1 -.263.035zm-7.13-3.983 7.13 1.944 7.13-1.944v-3.246h-14.26z" fill="#2f3a5a"/><path d="m84.77 85.524h15.372v5.037h-15.372z" fill="#84879c" transform="matrix(.951 .309 -.309 .951 31.677 -24.232)"/><path d="m98.99 93.81a1 1 0 0 1 -.309-.049l-14.621-4.744a1 1 0 0 1 -.643-1.26l1.554-4.791a1 1 0 0 1 1.26-.643l14.622 4.743a1 1 0 0 1 .643 1.26l-1.554 4.791a1 1 0 0 1 -.952.693zm-13.362-6.387 12.72 4.126.937-2.889-12.72-4.126z" fill="#2f3a5a"/><path d="m27.354 85.524h15.372v5.037h-15.372z" fill="#84879c" transform="matrix(-.951 .309 -.309 -.951 95.535 160.977)"/><path d="m28.506 93.81a1 1 0 0 1 -.951-.692l-1.555-4.791a1 1 0 0 1 .643-1.26l14.622-4.743a1 1 0 0 1 1.26.643l1.554 4.791a1 1 0 0 1 -.643 1.26l-14.622 4.742a1 1 0 0 1 -.308.05zm-.294-5.149.937 2.889 12.72-4.126-.937-2.889z" fill="#2f3a5a"/></svg>